HIERARCHY
ROOT hip
{
  OFFSET 5.70873 43.8894 -1.52928
  CHANNELS 6 Xposition Yposition Zposition Zrotation Xrotation Yrotation
  JOINT abdomen
  {
    OFFSET 0 5.99393 0.287273
    CHANNELS 6 Xposition Yposition Zposition Zrotation Xrotation Yrotation
    JOINT chest
    {
      OFFSET 0 6.65865 -0.856112
      CHANNELS 6 Xposition Yposition Zposition Zrotation Xrotation Yrotation
      JOINT neck
      {
        OFFSET 0 8.65624 -1.42685
        CHANNELS 6 Xposition Yposition Zposition Zrotation Xrotation Yrotation
        JOINT head
        {
          OFFSET 0 3.80999 -0.190247
          CHANNELS 6 Xposition Yposition Zposition Zrotation Xrotation Yrotation
          End Site
          {
            OFFSET 0 0 0
          }
        }
      }
      JOINT rCollar
      {
        OFFSET -1.4963 7.5744 -1.52136
        CHANNELS 6 Xposition Yposition Zposition Zrotation Xrotation Yrotation
        JOINT rShldr
        {
          OFFSET -5.47506 -0.905672 0.485692
          CHANNELS 6 Xposition Yposition Zposition Zrotation Xrotation Yrotation
          JOINT rForeArm
          {
            OFFSET -11.3069 -0.201091 0.618544
            CHANNELS 6 Xposition Yposition Zposition Zrotation Xrotation Yrotation
            JOINT rHand
            {
              OFFSET -9.61414 -0.254739 3.48553
              CHANNELS 6 Xposition Yposition Zposition Zrotation Xrotation Yrotation
              JOINT rThumb1
              {
                OFFSET 0.176263 -0.07068 1.26622
                CHANNELS 6 Xposition Yposition Zposition Zrotation Xrotation Yrotation
                JOINT rThumb2
                {
                  OFFSET -1.04683 -0.546484 1.82182
                  CHANNELS 6 Xposition Yposition Zposition Zrotation Xrotation Yrotation
                  JOINT rThumb3
                  {
                    OFFSET -0.993472 -0.621916 0.655506
                    CHANNELS 6 Xposition Yposition Zposition Zrotation Xrotation Yrotation
                    End Site
                    {
                      OFFSET -0.996134 -0.66263 0.644615
                    }
                  }
                }
              }
              JOINT rIndex1
              {
                OFFSET -2.64253 0.566363 2.4162
                CHANNELS 6 Xposition Yposition Zposition Zrotation Xrotation Yrotation
                JOINT rIndex2
                {
                  OFFSET -1.39394 -0.635138 0.899356
                  CHANNELS 6 Xposition Yposition Zposition Zrotation Xrotation Yrotation
                  JOINT rIndex3
                  {
                    OFFSET -0.622395 -0.856016 0.402182
                    CHANNELS 6 Xposition Yposition Zposition Zrotation Xrotation Yrotation
                    End Site
                    {
                      OFFSET -0.472476 -0.801802 0.34216
                    }
                  }
                }
              }
              JOINT rMid1
              {
                OFFSET -3.20814 0.514427 1.52547
                CHANNELS 6 Xposition Yposition Zposition Zrotation Xrotation Yrotation
                JOINT rMid2
                {
                  OFFSET -1.56545 -0.497974 0.68919
                  CHANNELS 6 Xposition Yposition Zposition Zrotation Xrotation Yrotation
                  JOINT rMid3
                  {
                    OFFSET -0.679943 -1.17582 0.444246
                    CHANNELS 6 Xposition Yposition Zposition Zrotation Xrotation Yrotation
                    End Site
                    {
                      OFFSET -0.343874 -0.941341 0.267611
                    }
                  }
                }
              }
              JOINT rRing1
              {
                OFFSET -3.47877 0.200518 0.597719
                CHANNELS 6 Xposition Yposition Zposition Zrotation Xrotation Yrotation
                JOINT rRing2
                {
                  OFFSET -1.28208 -0.53155 0.44672
                  CHANNELS 6 Xposition Yposition Zposition Zrotation Xrotation Yrotation
                  JOINT rRing3
                  {
                    OFFSET -0.710288 -0.970167 0.4032
                    CHANNELS 6 Xposition Yposition Zposition Zrotation Xrotation Yrotation
                    End Site
                    {
                      OFFSET -0.403228 -0.950952 0.378354
                    }
                  }
                }
              }
              JOINT rPinky1
              {
                OFFSET -3.42483 -0.278904 -0.240415
                CHANNELS 6 Xposition Yposition Zposition Zrotation Xrotation Yrotation
                JOINT rPinky2
                {
                  OFFSET -1.05787 -0.635999 0.156459
                  CHANNELS 6 Xposition Yposition Zposition Zrotation Xrotation Yrotation
                  JOINT rPinky3
                  {
                    OFFSET -0.42815 -0.754232 0.287187
                    CHANNELS 6 Xposition Yposition Zposition Zrotation Xrotation Yrotation
                    End Site
                    {
                      OFFSET -0.235717 -0.725605 0.279416
                    }
                  }
                }
              }
            }
          }
        }
      }
      JOINT lCollar
      {
        OFFSET 1.4963 7.5744 -1.52136
        CHANNELS 6 Xposition Yposition Zposition Zrotation Xrotation Yrotation
        JOINT lShldr
        {
          OFFSET 5.47506 -0.905672 0.485692
          CHANNELS 6 Xposition Yposition Zposition Zrotation Xrotation Yrotation
          JOINT lForeArm
          {
            OFFSET 11.3069 -0.201091 0.618544
            CHANNELS 6 Xposition Yposition Zposition Zrotation Xrotation Yrotation
            JOINT lHand
            {
              OFFSET 9.61414 -0.254739 3.48553
              CHANNELS 6 Xposition Yposition Zposition Zrotation Xrotation Yrotation
              JOINT lThumb1
              {
                OFFSET -0.176263 -0.07068 1.26622
                CHANNELS 6 Xposition Yposition Zposition Zrotation Xrotation Yrotation
                JOINT lThumb2
                {
                  OFFSET 1.04683 -0.546484 1.82182
                  CHANNELS 6 Xposition Yposition Zposition Zrotation Xrotation Yrotation
                  JOINT lThumb3
                  {
                    OFFSET 0.993472 -0.621916 0.655506
                    CHANNELS 6 Xposition Yposition Zposition Zrotation Xrotation Yrotation
                    End Site
                    {
                      OFFSET 0.996134 -0.66263 0.644615
                    }
                  }
                }
              }
              JOINT lIndex1
              {
                OFFSET 2.64253 0.566363 2.4162
                CHANNELS 6 Xposition Yposition Zposition Zrotation Xrotation Yrotation
                JOINT lIndex2
                {
                  OFFSET 1.39394 -0.635138 0.899356
                  CHANNELS 6 Xposition Yposition Zposition Zrotation Xrotation Yrotation
                  JOINT lIndex3
                  {
                    OFFSET 0.622395 -0.856016 0.402182
                    CHANNELS 6 Xposition Yposition Zposition Zrotation Xrotation Yrotation
                    End Site
                    {
                      OFFSET 0.472476 -0.801802 0.34216
                    }
                  }
                }
              }
              JOINT lMid1
              {
                OFFSET 3.20814 0.514427 1.52547
                CHANNELS 6 Xposition Yposition Zposition Zrotation Xrotation Yrotation
                JOINT lMid2
                {
                  OFFSET 1.56545 -0.497974 0.68919
                  CHANNELS 6 Xposition Yposition Zposition Zrotation Xrotation Yrotation
                  JOINT lMid3
                  {
                    OFFSET 0.679943 -1.17582 0.444246
                    CHANNELS 6 Xposition Yposition Zposition Zrotation Xrotation Yrotation
                    End Site
                    {
                      OFFSET 0.343874 -0.941341 0.267611
                    }
                  }
                }
              }
              JOINT lRing1
              {
                OFFSET 3.47877 0.200518 0.597719
                CHANNELS 6 Xposition Yposition Zposition Zrotation Xrotation Yrotation
                JOINT lRing2
                {
                  OFFSET 1.28208 -0.53155 0.44672
                  CHANNELS 6 Xposition Yposition Zposition Zrotation Xrotation Yrotation
                  JOINT lRing3
                  {
                    OFFSET 0.710288 -0.970167 0.4032
                    CHANNELS 6 Xposition Yposition Zposition Zrotation Xrotation Yrotation
                    End Site
                    {
                      OFFSET 0.403228 -0.950952 0.378354
                    }
                  }
                }
              }
              JOINT lPinky1
              {
                OFFSET 3.42483 -0.278904 -0.240415
                CHANNELS 6 Xposition Yposition Zposition Zrotation Xrotation Yrotation
                JOINT lPinky2
                {
                  OFFSET 1.05787 -0.635999 0.156459
                  CHANNELS 6 Xposition Yposition Zposition Zrotation Xrotation Yrotation
                  JOINT lPinky3
                  {
                    OFFSET 0.42815 -0.754232 0.287187
                    CHANNELS 6 Xposition Yposition Zposition Zrotation Xrotation Yrotation
                    End Site
                    {
                      OFFSET 0.235717 -0.725605 0.279416
                    }
                  }
                }
              }
            }
          }
        }
      }
    }
  }
  JOINT rThigh
  {
    OFFSET -4.17848 -1.02486 0.046356
    CHANNELS 6 Xposition Yposition Zposition Zrotation Xrotation Yrotation
    JOINT rShin
    {
      OFFSET 1.27155 -17.465 -0.237699
      CHANNELS 6 Xposition Yposition Zposition Zrotation Xrotation Yrotation
      JOINT rFoot
      {
        OFFSET 0.529163 -17.3815 -1.19582
        CHANNELS 6 Xposition Yposition Zposition Zrotation Xrotation Yrotation
        JOINT rToe
        {
          OFFSET -0.711591 -4.4863 4.0596
          CHANNELS 6 Xposition Yposition Zposition Zrotation Xrotation Yrotation
          End Site
          {
            OFFSET -0.869915 -1.10655 1.99006
          }
        }
      }
    }
  }
  JOINT lThigh
  {
    OFFSET 4.17848 -1.02486 0.046356
    CHANNELS 6 Xposition Yposition Zposition Zrotation Xrotation Yrotation
    JOINT lShin
    {
      OFFSET -1.27155 -17.465 -0.237699
      CHANNELS 6 Xposition Yposition Zposition Zrotation Xrotation Yrotation
      JOINT lFoot
      {
        OFFSET -0.529163 -17.3815 -1.19582
        CHANNELS 6 Xposition Yposition Zposition Zrotation Xrotation Yrotation
        JOINT lToe
        {
          OFFSET 0.711591 -4.4863 4.0596
          CHANNELS 6 Xposition Yposition Zposition Zrotation Xrotation Yrotation
          End Site
          {
            OFFSET 0.869915 -1.10655 1.99006
          }
        }
      }
    }
  }
}
MOTION
Frames:	4
Frame Time:	0.0333333
-16.8363 62.5338 -9.14527 -5.70156 -28.0471 27.2718 7.10543e-015 5.99393 0.287273 -0.552476 8.20778 -7.41532 7.10543e-015 6.65865 -0.856112 -0.0172081 16.4174 -14.9847 0 8.65624 -1.42685 0.419411 8.27919 11.2858 -3.55271e-015 3.80999 -0.190247 12.1906 1.03822 16.5832 -1.4963 7.5744 -1.52136 0.636902 0.106756 -5.92518 -5.47506 -0.905672 0.485692 51.0327 2.89362 46.5257 -11.3069 -0.201091 0.618544 67.7173 14.8761 92.98 -9.61414 -0.254739 3.48553 -24.3479 1.28311 13.142 0.176263 -0.07068 1.26622 -15.6874 50.412 18.5118 -1.04683 -0.546484 1.82182 -0.515837 0.557664 -1.56014 -0.993472 -0.621916 0.655506 -4.32707 5.93883 -14.9479 -2.64253 0.566363 2.4162 -23.6257 5.46674 -14.517 -1.39394 -0.635138 0.899356 39.8962 7.70352 -8.81722 -0.622395 -0.856016 0.402182 45.8626 8.2491 -10.491 -3.20814 0.514427 1.52547 -0.840559 5.94949 -9.82409 -1.56545 -0.497974 0.68919 52.741 10.5331 -13.0891 -0.679943 -1.17582 0.444246 44.4809 9.78106 -10.5177 -3.47877 0.200518 0.597719 16.3706 -0.644955 -5.84595 -1.28208 -0.53155 0.44672 37.8363 9.71786 -10.3213 -0.710288 -0.970167 0.4032 39.1355 9.91092 -10.7659 -3.42483 -0.278904 -0.240415 24.5433 -1.90449 -2.2637 -1.05787 -0.635999 0.156459 31.0685 9.47911 -7.89245 -0.42815 -0.754232 0.287187 30.9983 9.46347 -7.86998 1.4963 7.5744 -1.52136 8.63758 -1.84049 -19.5369 5.47506 -0.905672 0.485692 -51.3593 -1.12049 -17.8923 11.3069 -0.201091 0.618544 -36.5206 32.8651 -75.7951 9.61414 -0.254739 3.48553 -40.3454 -29.3863 0.889152 -0.176263 -0.07068 1.26622 24.2781 38.4818 -35.502 1.04683 -0.546484 1.82182 -6.5318 -1.24816 -11.4632 0.993472 -0.621916 0.655506 6.45118 2.66723 11.8094 2.64253 0.566363 2.4162 -5.18974 4.48311 12.5249 1.39394 -0.635138 0.899356 -36.9452 6.74324 17.0314 0.622395 -0.856016 0.402182 -38.0065 6.76609 17.5559 3.20814 0.514427 1.52547 -1.48519 -0.683629 1.67104 1.56545 -0.497974 0.68919 -44.4869 8.35697 21.4003 0.679943 -1.17582 0.444246 -9.36097 3.19915 3.99158 3.47877 0.200518 0.597719 -8.0766 -2.63752 5.99021 1.28208 -0.53155 0.44672 -14.7811 5.15036 7.29455 0.710288 -0.970167 0.4032 -16.2802 5.55273 8.08491 3.42483 -0.278904 -0.240415 11.7678 -11.303 2.60136 1.05787 -0.635999 0.156459 -18.8959 6.82266 9.38287 0.42815 -0.754232 0.287187 -9.18827 3.76099 4.34952 -4.17848 -1.02486 0.046356 -5.65975 -70.5715 -37.7143 1.27155 -17.465 -0.237699 40.2801 70.3039 -31.5365 0.529163 -17.3815 -1.19582 13.3287 12.2194 -10.2854 -0.711591 -4.4863 4.0596 1.97384 13.8174 -0.611766 4.17848 -1.02486 0.046356 23.4165 -61.0077 22.279 -1.27155 -17.465 -0.237699 153.495 81.7596 -157.918 -0.529163 -17.3815 -1.19582 -3.07229 26.6558 -12.5419 0.711591 -4.4863 4.0596 0.306059 -2.47255 0.131161 
-16.8589 62.5328 -9.1447 -5.60346 -28.0415 27.5341 -3.55271e-015 5.99393 0.287273 -0.56909 8.21151 -7.46602 -7.10543e-015 6.65865 -0.856112 -0.0426941 16.4266 -15.0855 7.10543e-015 8.65624 -1.42685 0.420851 8.45872 11.2641 7.10543e-015 3.80999 -0.190247 12.1991 1.04512 16.5232 -1.4963 7.5744 -1.52136 0.641317 0.106325 -5.89984 -5.47506 -0.905672 0.485692 51.0595 2.90103 46.5455 -11.3069 -0.201091 0.618544 67.6197 14.7737 92.9868 -9.61414 -0.254739 3.48553 -24.3591 1.2309 13.1272 0.176263 -0.07068 1.26622 -15.6873 50.412 18.5118 -1.04683 -0.546484 1.82182 -0.515833 0.557671 -1.56014 -0.993472 -0.621916 0.655506 -4.32707 5.93882 -14.9479 -2.64253 0.566363 2.4162 -23.6257 5.46674 -14.517 -1.39394 -0.635138 0.899356 39.8962 7.70352 -8.81722 -0.622395 -0.856016 0.402182 45.8626 8.24913 -10.491 -3.20814 0.514427 1.52547 -0.840566 5.94949 -9.82409 -1.56545 -0.497974 0.68919 52.741 10.5331 -13.0891 -0.679943 -1.17582 0.444246 44.4809 9.78107 -10.5177 -3.47877 0.200518 0.597719 16.3706 -0.644959 -5.84595 -1.28208 -0.53155 0.44672 37.8362 9.71785 -10.3213 -0.710288 -0.970167 0.4032 39.1355 9.91093 -10.7659 -3.42483 -0.278904 -0.240415 24.5433 -1.90447 -2.26369 -1.05787 -0.635999 0.156459 31.0685 9.4791 -7.89244 -0.42815 -0.754232 0.287187 30.9983 9.46347 -7.86999 1.4963 7.5744 -1.52136 8.61762 -1.8389 -19.5186 5.47506 -0.905672 0.485692 -51.3473 -1.15899 -17.9102 11.3069 -0.201091 0.618544 -36.4709 32.8015 -75.7803 9.61414 -0.254739 3.48553 -40.5515 -29.4244 0.865096 -0.176263 -0.07068 1.26622 24.2782 38.4818 -35.502 1.04683 -0.546484 1.82182 -6.5318 -1.24819 -11.4632 0.993472 -0.621916 0.655506 6.45118 2.66723 11.8095 2.64253 0.566363 2.4162 -5.18976 4.48313 12.5249 1.39394 -0.635138 0.899356 -36.9452 6.74323 17.0314 0.622395 -0.856016 0.402182 -38.0065 6.76608 17.5559 3.20814 0.514427 1.52547 -1.48521 -0.683619 1.67104 1.56545 -0.497974 0.68919 -44.4869 8.35696 21.4003 0.679943 -1.17582 0.444246 -9.361 3.19917 3.99159 3.47877 0.200518 0.597719 -8.07662 -2.63753 5.99021 1.28208 -0.53155 0.44672 -14.7811 5.15035 7.29456 0.710288 -0.970167 0.4032 -16.2802 5.55274 8.08492 3.42483 -0.278904 -0.240415 11.7678 -11.303 2.60137 1.05787 -0.635999 0.156459 -18.896 6.82266 9.38289 0.42815 -0.754232 0.287187 -9.18827 3.76101 4.34953 -4.17848 -1.02486 0.046356 -5.62743 -70.5273 -37.6789 1.27155 -17.465 -0.237699 39.9995 70.207 -31.2607 0.529163 -17.3815 -1.19582 13.3916 12.35 -10.3092 -0.711591 -4.4863 4.0596 1.98086 13.8634 -0.614675 4.17848 -1.02486 0.046356 23.346 -61.0126 22.1984 -1.27155 -17.465 -0.237699 153.066 81.9073 -157.495 -0.529163 -17.3815 -1.19582 -3.1801 26.6097 -12.4264 0.711591 -4.4863 4.0596 0.311599 -2.51698 0.133635 
-16.8854 62.5313 -9.14281 -5.49591 -28.0401 27.8248 3.55271e-015 5.99393 0.287273 -0.579373 8.21856 -7.52604 7.10543e-015 6.65865 -0.856112 -0.0536086 16.4414 -15.2063 -7.10543e-015 8.65624 -1.42685 0.413177 8.60404 11.2363 -7.10543e-015 3.80999 -0.190247 12.2526 1.01991 16.497 -1.4963 7.5744 -1.52136 0.632465 0.105856 -5.88193 -5.47506 -0.905672 0.485692 51.0648 2.88166 46.5899 -11.3069 -0.201091 0.618544 67.4211 14.6396 92.985 -9.61414 -0.254739 3.48553 -24.357 1.04486 13.0866 0.176263 -0.07068 1.26622 -15.6874 50.412 18.5118 -1.04683 -0.546484 1.82182 -0.51583 0.557672 -1.56015 -0.993472 -0.621916 0.655506 -4.32709 5.93883 -14.9479 -2.64253 0.566363 2.4162 -23.6257 5.46675 -14.517 -1.39394 -0.635138 0.899356 39.8962 7.70354 -8.81722 -0.622395 -0.856016 0.402182 45.8626 8.24912 -10.491 -3.20814 0.514427 1.52547 -0.840553 5.94949 -9.82409 -1.56545 -0.497974 0.68919 52.741 10.5331 -13.0891 -0.679943 -1.17582 0.444246 44.4809 9.78108 -10.5177 -3.47877 0.200518 0.597719 16.3706 -0.644948 -5.84595 -1.28208 -0.53155 0.44672 37.8362 9.71785 -10.3213 -0.710288 -0.970167 0.4032 39.1355 9.91094 -10.7659 -3.42483 -0.278904 -0.240415 24.5433 -1.90444 -2.26369 -1.05787 -0.635999 0.156459 31.0686 9.47911 -7.89245 -0.42815 -0.754232 0.287187 30.9983 9.46347 -7.87 1.4963 7.5744 -1.52136 8.59896 -1.83784 -19.5059 5.47506 -0.905672 0.485692 -51.3272 -1.18104 -17.9043 11.3069 -0.201091 0.618544 -36.4392 32.7098 -75.7845 9.61414 -0.254739 3.48553 -40.7641 -29.4293 0.850919 -0.176263 -0.07068 1.26622 24.2782 38.4818 -35.502 1.04683 -0.546484 1.82182 -6.5318 -1.24817 -11.4632 0.993472 -0.621916 0.655506 6.45117 2.66723 11.8094 2.64253 0.566363 2.4162 -5.18975 4.48313 12.5249 1.39394 -0.635138 0.899356 -36.9452 6.74323 17.0314 0.622395 -0.856016 0.402182 -38.0065 6.76608 17.5559 3.20814 0.514427 1.52547 -1.48521 -0.68363 1.67104 1.56545 -0.497974 0.68919 -44.4869 8.35694 21.4003 0.679943 -1.17582 0.444246 -9.36099 3.19917 3.99159 3.47877 0.200518 0.597719 -8.07663 -2.63756 5.99021 1.28208 -0.53155 0.44672 -14.7811 5.15034 7.29457 0.710288 -0.970167 0.4032 -16.2801 5.55275 8.08492 3.42483 -0.278904 -0.240415 11.7678 -11.303 2.60137 1.05787 -0.635999 0.156459 -18.8959 6.82263 9.38288 0.42815 -0.754232 0.287187 -9.18827 3.761 4.34953 -4.17848 -1.02486 0.046356 -5.75506 -70.4596 -37.8642 1.27155 -17.465 -0.237699 39.747 70.1087 -30.9863 0.529163 -17.3815 -1.19582 13.3256 12.4107 -10.298 -0.711591 -4.4863 4.0596 1.99447 13.953 -0.620335 4.17848 -1.02486 0.046356 23.2667 -61.0346 22.09 -1.27155 -17.465 -0.237699 152.656 82.0297 -157.072 -0.529163 -17.3815 -1.19582 -3.30374 26.7715 -12.3769 0.711591 -4.4863 4.0596 0.328063 -2.64845 0.140976 
-16.9047 62.5228 -9.14239 -5.4042 -28.0486 28.0142 -3.55271e-015 5.99393 0.287273 -0.584641 8.22517 -7.55941 -3.55271e-015 6.65865 -0.856112 -0.0583134 16.4549 -15.2737 7.10543e-015 8.65624 -1.42685 0.41988 8.70348 11.1962 0 3.80999 -0.190247 12.2027 1.04416 16.4315 -1.4963 7.5744 -1.52136 0.607787 0.105708 -5.87121 -5.47506 -0.905672 0.485692 51.036 2.81722 46.6602 -11.3069 -0.201091 0.618544 67.0892 14.4538 92.9912 -9.61414 -0.254739 3.48553 -24.3131 0.677993 12.9817 0.176263 -0.07068 1.26622 -15.6874 50.412 18.5118 -1.04683 -0.546484 1.82182 -0.515828 0.557676 -1.56015 -0.993472 -0.621916 0.655506 -4.32708 5.93884 -14.9479 -2.64253 0.566363 2.4162 -23.6257 5.46676 -14.517 -1.39394 -0.635138 0.899356 39.8962 7.70354 -8.81724 -0.622395 -0.856016 0.402182 45.8626 8.24914 -10.491 -3.20814 0.514427 1.52547 -0.840551 5.94948 -9.82409 -1.56545 -0.497974 0.68919 52.741 10.5331 -13.0891 -0.679943 -1.17582 0.444246 44.4809 9.78109 -10.5177 -3.47877 0.200518 0.597719 16.3706 -0.644952 -5.84595 -1.28208 -0.53155 0.44672 37.8363 9.71788 -10.3213 -0.710288 -0.970167 0.4032 39.1355 9.91094 -10.7659 -3.42483 -0.278904 -0.240415 24.5433 -1.90441 -2.2637 -1.05787 -0.635999 0.156459 31.0685 9.47912 -7.89245 -0.42815 -0.754232 0.287187 30.9983 9.46347 -7.86997 1.4963 7.5744 -1.52136 8.58309 -1.83757 -19.5032 5.47506 -0.905672 0.485692 -51.3171 -1.17149 -17.8916 11.3069 -0.201091 0.618544 -36.431 32.5917 -75.8109 9.61414 -0.254739 3.48553 -40.9339 -29.4115 0.866639 -0.176263 -0.07068 1.26622 24.2782 38.4819 -35.502 1.04683 -0.546484 1.82182 -6.53181 -1.24817 -11.4632 0.993472 -0.621916 0.655506 6.45118 2.66721 11.8095 2.64253 0.566363 2.4162 -5.18975 4.48313 12.5249 1.39394 -0.635138 0.899356 -36.9452 6.74324 17.0314 0.622395 -0.856016 0.402182 -38.0065 6.76609 17.5559 3.20814 0.514427 1.52547 -1.48523 -0.683669 1.67104 1.56545 -0.497974 0.68919 -44.4869 8.35693 21.4003 0.679943 -1.17582 0.444246 -9.36098 3.19916 3.99159 3.47877 0.200518 0.597719 -8.07663 -2.63756 5.99021 1.28208 -0.53155 0.44672 -14.7811 5.15033 7.29457 0.710288 -0.970167 0.4032 -16.2802 5.55276 8.08492 3.42483 -0.278904 -0.240415 11.7678 -11.303 2.60136 1.05787 -0.635999 0.156459 -18.896 6.82264 9.38289 0.42815 -0.754232 0.287187 -9.18828 3.76101 4.34953 -4.17848 -1.02486 0.046356 -5.69615 -70.4642 -37.827 1.27155 -17.465 -0.237699 39.4525 70.0128 -30.7087 0.529163 -17.3815 -1.19582 13.3303 12.5107 -10.3963 -0.711591 -4.4863 4.0596 1.96667 13.7699 -0.60875 4.17848 -1.02486 0.046356 23.3579 -61.0447 22.1342 -1.27155 -17.465 -0.237699 152.44 82.0897 -156.843 -0.529163 -17.3815 -1.19582 -3.53106 27.0079 -12.3315 0.711591 -4.4863 4.0596 0.330217 -2.66568 0.14195 
